<svg width="713" height="907" viewBox="0 0 713 907" fill="none" xmlns="http://www.w3.org/2000/svg">
<g clip-path="url(#clip0_1647_767)">
<path d="M235.045 781.452C234.455 781.452 234.005 781.359 233.695 781.172C233.416 781.017 233.229 780.785 233.136 780.474C233.043 780.133 232.997 779.745 232.997 779.311V751.058C232.997 750.655 233.043 750.298 233.136 749.988C233.26 749.677 233.478 749.429 233.788 749.243C234.098 749.057 234.533 748.964 235.091 748.964H245.284C246.774 748.964 248.139 749.196 249.38 749.662C250.653 750.096 251.754 750.779 252.685 751.71C253.647 752.61 254.392 753.711 254.919 755.014C255.447 756.318 255.71 757.823 255.71 759.529C255.71 761.205 255.447 762.694 254.919 763.997C254.392 765.301 253.647 766.402 252.685 767.302C251.723 768.171 250.606 768.838 249.334 769.304C248.093 769.769 246.727 770.002 245.238 770.002H237.232V779.357C237.232 779.792 237.17 780.164 237.046 780.474C236.953 780.785 236.751 781.017 236.441 781.172C236.162 781.359 235.696 781.452 235.045 781.452ZM237.232 765.766H245.284C246.526 765.766 247.612 765.533 248.543 765.068C249.473 764.572 250.203 763.858 250.73 762.927C251.258 761.965 251.521 760.801 251.521 759.436C251.521 758.133 251.273 757.016 250.777 756.085C250.28 755.154 249.551 754.44 248.589 753.944C247.658 753.447 246.541 753.199 245.238 753.199H237.232V765.766ZM270.865 781.731C269.344 781.731 267.886 781.436 266.49 780.847C265.124 780.257 263.899 779.45 262.813 778.426C261.726 777.371 260.873 776.146 260.253 774.749C259.632 773.353 259.322 771.832 259.322 770.188C259.322 768.574 259.616 767.085 260.206 765.72C260.796 764.323 261.618 763.098 262.673 762.043C263.728 760.988 264.938 760.165 266.303 759.576C267.7 758.955 269.189 758.645 270.772 758.645C272.913 758.645 274.837 759.157 276.543 760.181C278.281 761.174 279.662 762.539 280.686 764.277C281.71 766.014 282.222 767.969 282.222 770.141C282.222 771.848 281.911 773.415 281.291 774.842C280.67 776.239 279.832 777.449 278.777 778.473C277.722 779.497 276.512 780.304 275.147 780.893C273.782 781.452 272.354 781.731 270.865 781.731ZM270.772 777.682C272.075 777.682 273.285 777.356 274.402 776.704C275.519 776.053 276.419 775.153 277.102 774.005C277.784 772.856 278.126 771.553 278.126 770.095C278.126 768.636 277.8 767.349 277.148 766.232C276.528 765.115 275.659 764.246 274.542 763.625C273.425 763.005 272.152 762.694 270.725 762.694C269.36 762.694 268.119 763.02 267.002 763.672C265.915 764.323 265.031 765.208 264.348 766.325C263.697 767.442 263.371 768.714 263.371 770.141C263.371 771.631 263.712 772.95 264.395 774.098C265.078 775.215 265.978 776.099 267.095 776.751C268.243 777.371 269.468 777.682 270.772 777.682ZM293.627 781.312C293.161 781.312 292.789 781.235 292.51 781.079C292.262 780.955 292.06 780.785 291.905 780.567C291.781 780.319 291.687 780.055 291.625 779.776L284.411 761.438C284.256 760.972 284.178 760.584 284.178 760.274C284.209 759.964 284.333 759.7 284.551 759.483C284.799 759.265 285.156 759.079 285.621 758.924C286.366 758.645 286.94 758.583 287.343 758.738C287.747 758.862 288.073 759.265 288.321 759.948L293.627 774.098L298.561 760.274C298.654 760.026 298.762 759.793 298.886 759.576C299.042 759.328 299.259 759.126 299.538 758.971C299.817 758.816 300.174 758.738 300.609 758.738C301.105 758.738 301.477 758.816 301.726 758.971C302.005 759.126 302.222 759.312 302.377 759.529C302.563 759.746 302.688 759.979 302.75 760.227L307.637 774.191L312.943 760.181C313.222 759.436 313.563 758.955 313.967 758.738C314.401 758.521 314.991 758.552 315.736 758.831C316.387 759.048 316.822 759.359 317.039 759.762C317.256 760.165 317.209 760.739 316.899 761.484L309.685 779.823C309.592 780.071 309.468 780.319 309.312 780.567C309.188 780.785 308.987 780.955 308.707 781.079C308.459 781.235 308.118 781.312 307.683 781.312C307.249 781.312 306.908 781.25 306.659 781.126C306.411 781.002 306.209 780.816 306.054 780.567C305.899 780.288 305.759 779.993 305.635 779.683L300.655 765.347L295.628 779.683C295.504 780.055 295.365 780.366 295.209 780.614C295.085 780.862 294.899 781.033 294.651 781.126C294.403 781.25 294.061 781.312 293.627 781.312ZM331.01 781.684C329.148 781.684 327.488 781.374 326.03 780.754C324.571 780.133 323.33 779.295 322.306 778.24C321.313 777.154 320.553 775.913 320.025 774.517C319.498 773.12 319.234 771.615 319.234 770.002C319.234 767.861 319.73 765.952 320.723 764.277C321.716 762.601 323.082 761.282 324.819 760.32C326.588 759.328 328.605 758.831 330.87 758.831C332.422 758.831 333.802 759.079 335.013 759.576C336.254 760.041 337.309 760.677 338.178 761.484C339.046 762.291 339.714 763.191 340.179 764.184C340.645 765.177 340.877 766.17 340.877 767.163C340.877 768.745 340.505 769.862 339.76 770.514C339.015 771.134 338.1 771.445 337.014 771.445H323.563C323.532 772.81 323.888 773.989 324.633 774.982C325.409 775.944 326.371 776.689 327.519 777.216C328.698 777.744 329.877 778.007 331.056 778.007C331.925 778.007 332.67 777.961 333.29 777.868C333.911 777.775 334.454 777.651 334.92 777.495C335.385 777.34 335.788 777.185 336.13 777.03C336.471 776.875 336.766 776.72 337.014 776.565C337.293 776.409 337.557 776.301 337.805 776.239C338.085 776.177 338.348 776.208 338.597 776.332C338.876 776.425 339.093 776.627 339.248 776.937C339.434 777.185 339.558 777.418 339.621 777.635C339.683 777.852 339.714 778.085 339.714 778.333C339.714 778.768 339.341 779.249 338.597 779.776C337.852 780.304 336.812 780.754 335.478 781.126C334.175 781.498 332.685 781.684 331.01 781.684ZM323.563 768.698H335.245C335.835 768.698 336.269 768.621 336.549 768.466C336.859 768.311 337.014 767.892 337.014 767.209C337.014 766.34 336.75 765.564 336.223 764.882C335.695 764.168 334.966 763.594 334.035 763.16C333.135 762.725 332.096 762.508 330.917 762.508C329.551 762.508 328.295 762.787 327.147 763.346C326.03 763.873 325.145 764.603 324.494 765.533C323.842 766.464 323.532 767.519 323.563 768.698ZM347.581 781.452C346.992 781.452 346.542 781.359 346.232 781.172C345.952 781.017 345.766 780.785 345.673 780.474C345.611 780.133 345.58 779.745 345.58 779.311V760.972C345.58 760.507 345.627 760.119 345.72 759.808C345.813 759.498 345.999 759.281 346.278 759.157C346.558 759.002 347.007 758.924 347.628 758.924C348.187 758.924 348.605 759.002 348.885 759.157C349.195 759.281 349.397 759.483 349.49 759.762C349.614 760.01 349.676 760.305 349.676 760.646L349.49 762.043C349.707 761.639 349.955 761.236 350.235 760.832C350.545 760.429 350.917 760.072 351.352 759.762C351.817 759.421 352.36 759.141 352.981 758.924C353.632 758.707 354.424 758.598 355.354 758.598C355.82 758.598 356.254 758.645 356.658 758.738C357.092 758.8 357.495 758.909 357.868 759.064C358.271 759.219 358.613 759.405 358.892 759.622C359.171 759.808 359.388 760.026 359.543 760.274C359.73 760.491 359.823 760.755 359.823 761.065C359.823 761.748 359.606 762.337 359.171 762.834C358.737 763.299 358.287 763.532 357.821 763.532C357.418 763.532 357.123 763.486 356.937 763.392C356.751 763.268 356.565 763.144 356.378 763.02C356.223 762.896 355.991 762.787 355.68 762.694C355.37 762.57 354.873 762.508 354.191 762.508C353.725 762.508 353.229 762.601 352.701 762.787C352.205 762.974 351.724 763.253 351.259 763.625C350.793 763.966 350.405 764.416 350.095 764.975C349.816 765.533 349.676 766.185 349.676 766.93V779.404C349.676 779.838 349.629 780.211 349.536 780.521C349.443 780.831 349.242 781.064 348.931 781.219C348.652 781.374 348.202 781.452 347.581 781.452ZM373.645 781.684C371.784 781.684 370.123 781.374 368.665 780.754C367.207 780.133 365.966 779.295 364.942 778.24C363.949 777.154 363.188 775.913 362.661 774.517C362.133 773.12 361.87 771.615 361.87 770.002C361.87 767.861 362.366 765.952 363.359 764.277C364.352 762.601 365.717 761.282 367.455 760.32C369.224 759.328 371.241 758.831 373.506 758.831C375.057 758.831 376.438 759.079 377.648 759.576C378.889 760.041 379.944 760.677 380.813 761.484C381.682 762.291 382.349 763.191 382.815 764.184C383.28 765.177 383.513 766.17 383.513 767.163C383.513 768.745 383.14 769.862 382.396 770.514C381.651 771.134 380.736 771.445 379.65 771.445H366.198C366.167 772.81 366.524 773.989 367.269 774.982C368.044 775.944 369.006 776.689 370.155 777.216C371.334 777.744 372.513 778.007 373.692 778.007C374.561 778.007 375.305 777.961 375.926 777.868C376.547 777.775 377.09 777.651 377.555 777.495C378.021 777.34 378.424 777.185 378.765 777.03C379.107 776.875 379.401 776.72 379.65 776.565C379.929 776.409 380.193 776.301 380.441 776.239C380.72 776.177 380.984 776.208 381.232 776.332C381.511 776.425 381.729 776.627 381.884 776.937C382.07 777.185 382.194 777.418 382.256 777.635C382.318 777.852 382.349 778.085 382.349 778.333C382.349 778.768 381.977 779.249 381.232 779.776C380.487 780.304 379.448 780.754 378.114 781.126C376.81 781.498 375.321 781.684 373.645 781.684ZM366.198 768.698H377.881C378.47 768.698 378.905 768.621 379.184 768.466C379.494 768.311 379.65 767.892 379.65 767.209C379.65 766.34 379.386 765.564 378.858 764.882C378.331 764.168 377.602 763.594 376.671 763.16C375.771 762.725 374.731 762.508 373.552 762.508C372.187 762.508 370.93 762.787 369.782 763.346C368.665 763.873 367.781 764.603 367.129 765.533C366.477 766.464 366.167 767.519 366.198 768.698ZM397.897 781.452C396.501 781.452 395.166 781.172 393.894 780.614C392.622 780.055 391.505 779.264 390.543 778.24C389.612 777.216 388.867 776.022 388.309 774.656C387.781 773.26 387.517 771.739 387.517 770.095C387.517 768.481 387.781 766.992 388.309 765.627C388.867 764.261 389.612 763.082 390.543 762.089C391.505 761.065 392.622 760.274 393.894 759.715C395.166 759.157 396.501 758.878 397.897 758.878C399.417 758.878 400.783 759.157 401.993 759.715C403.234 760.274 404.289 761.065 405.158 762.089C406.058 763.082 406.74 764.277 407.206 765.673C407.671 767.038 407.904 768.528 407.904 770.141C407.935 771.786 407.702 773.291 407.206 774.656C406.74 776.022 406.073 777.216 405.204 778.24C404.336 779.264 403.281 780.055 402.039 780.614C400.829 781.172 399.448 781.452 397.897 781.452ZM398.502 777.495C399.805 777.495 400.969 777.185 401.993 776.565C403.048 775.944 403.87 775.091 404.46 774.005C405.08 772.888 405.391 771.615 405.391 770.188C405.391 768.73 405.08 767.457 404.46 766.371C403.87 765.254 403.048 764.385 401.993 763.765C400.969 763.144 399.805 762.834 398.502 762.834C397.199 762.834 396.02 763.144 394.965 763.765C393.91 764.385 393.072 765.254 392.451 766.371C391.862 767.457 391.567 768.73 391.567 770.188C391.567 771.615 391.862 772.888 392.451 774.005C393.072 775.091 393.91 775.944 394.965 776.565C396.051 777.185 397.23 777.495 398.502 777.495ZM407.625 781.452C406.942 781.452 406.446 781.328 406.135 781.079C405.825 780.831 405.639 780.412 405.577 779.823V750.686C405.577 750.22 405.608 749.832 405.67 749.522C405.763 749.212 405.949 748.979 406.228 748.824C406.539 748.638 406.989 748.545 407.578 748.545C408.168 748.545 408.602 748.638 408.881 748.824C409.192 748.979 409.393 749.212 409.487 749.522C409.58 749.832 409.626 750.205 409.626 750.639V779.311C409.626 779.745 409.58 780.133 409.487 780.474C409.393 780.785 409.207 781.017 408.928 781.172C408.649 781.359 408.214 781.452 407.625 781.452ZM438.756 781.452C437.235 781.452 435.855 781.172 434.613 780.614C433.372 780.055 432.317 779.264 431.448 778.24C430.579 777.216 429.897 776.022 429.4 774.656C428.935 773.291 428.718 771.786 428.749 770.141C428.749 768.528 428.981 767.038 429.447 765.673C429.912 764.277 430.579 763.082 431.448 762.089C432.348 761.065 433.403 760.274 434.613 759.715C435.855 759.157 437.235 758.878 438.756 758.878C440.183 758.878 441.517 759.157 442.759 759.715C444.031 760.274 445.132 761.065 446.063 762.089C447.025 763.082 447.77 764.261 448.297 765.627C448.856 766.992 449.135 768.481 449.135 770.095C449.135 771.739 448.856 773.26 448.297 774.656C447.77 776.022 447.025 777.216 446.063 778.24C445.132 779.264 444.031 780.055 442.759 780.614C441.517 781.172 440.183 781.452 438.756 781.452ZM438.151 777.495C439.454 777.495 440.633 777.185 441.688 776.565C442.743 775.944 443.565 775.091 444.155 774.005C444.776 772.888 445.086 771.615 445.086 770.188C445.086 768.73 444.776 767.457 444.155 766.371C443.565 765.254 442.743 764.385 441.688 763.765C440.664 763.144 439.485 762.834 438.151 762.834C436.847 762.834 435.668 763.144 434.613 763.765C433.589 764.385 432.767 765.254 432.146 766.371C431.557 767.457 431.262 768.73 431.262 770.188C431.262 771.615 431.557 772.888 432.146 774.005C432.767 775.091 433.589 775.944 434.613 776.565C435.668 777.185 436.847 777.495 438.151 777.495ZM429.075 781.498C428.485 781.498 428.035 781.405 427.725 781.219C427.445 781.064 427.259 780.831 427.166 780.521C427.073 780.179 427.027 779.807 427.027 779.404V750.686C427.027 750.22 427.073 749.832 427.166 749.522C427.259 749.212 427.445 748.979 427.725 748.824C428.035 748.638 428.485 748.545 429.075 748.545C429.664 748.545 430.098 748.638 430.378 748.824C430.657 749.01 430.843 749.258 430.936 749.569C431.029 749.879 431.076 750.251 431.076 750.686V779.823C431.014 780.412 430.828 780.831 430.517 781.079C430.238 781.359 429.757 781.498 429.075 781.498ZM456.512 790.481C455.767 790.171 455.333 789.814 455.209 789.411C455.084 789.007 455.193 788.449 455.534 787.735L467.869 760.041C468.21 759.328 468.567 758.893 468.939 758.738C469.343 758.552 469.901 758.614 470.615 758.924C471.36 759.265 471.778 759.638 471.872 760.041C471.996 760.445 471.903 760.988 471.592 761.67L459.165 789.504C458.855 790.218 458.513 790.637 458.141 790.761C457.769 790.885 457.225 790.792 456.512 790.481ZM461.12 778.473L450.461 762.043C450.058 761.422 449.902 760.91 449.996 760.507C450.089 760.072 450.446 759.653 451.066 759.25C451.749 758.816 452.292 758.66 452.695 758.784C453.13 758.878 453.564 759.234 453.998 759.855L463.028 774.051L461.12 778.473Z" fill="#C0171D"/>
<path d="M181 847.714C181 870.608 199.392 889.258 221.901 889.258C244.409 889.258 262.673 870.608 262.673 847.714C262.673 824.82 244.538 806.17 221.901 806.17C199.264 806.17 181 824.691 181 847.714ZM231.161 825.849C218.943 822.119 213.283 831.508 214.827 836.267C215.598 838.71 217.528 840.125 219.843 840.125C224.087 840.254 224.345 836.524 227.56 834.209C232.576 830.35 246.724 831.379 246.724 847.457C246.724 863.534 235.406 871.637 222.287 871.637C209.167 871.637 198.363 861.733 198.363 847.842C198.363 833.952 208.139 823.276 222.415 823.276C236.692 823.276 228.975 824.048 231.419 825.849" fill="white"/>
<path d="M313.984 814.018C313.984 812.989 314.756 812.089 315.913 812.089H340.608C353.213 812.089 363.502 822.378 363.502 834.726C363.502 847.073 353.213 857.749 340.608 857.749H329.804V881.8C329.804 882.829 328.904 883.73 327.875 883.73H315.785C314.627 883.73 313.855 882.829 313.855 881.8V814.018H313.984ZM339.708 842.829C344.081 842.829 347.811 839.356 347.811 834.726C347.811 830.095 344.081 827.137 339.708 827.137H329.933V842.829H339.708Z" fill="white"/>
<path d="M368.521 814.018C368.521 812.989 369.292 812.089 370.449 812.089H412.895C414.052 812.089 414.823 812.989 414.823 814.018V825.208C414.823 826.237 414.052 827.137 412.895 827.137H384.469V839.87H407.878C408.907 839.87 409.807 840.771 409.807 841.8V852.99C409.807 854.147 408.907 854.919 407.878 854.919H384.469V868.81H412.895C414.052 868.81 414.823 869.71 414.823 870.739V881.929C414.823 882.958 414.052 883.858 412.895 883.858H370.449C369.292 883.858 368.521 882.958 368.521 881.929V814.018Z" fill="white"/>
<path d="M422.418 814.018C422.418 812.989 423.19 812.089 424.347 812.089H454.959C467.306 812.089 477.338 821.992 477.338 834.211C477.338 846.43 471.036 851.189 462.161 854.79L476.181 880.771C476.953 882.058 476.181 883.73 474.38 883.73H460.747C459.975 883.73 459.332 883.215 459.075 882.829L445.441 855.691H438.367V881.8C438.367 882.829 437.467 883.73 436.438 883.73H424.219C423.061 883.73 422.289 882.829 422.289 881.8V814.018H422.418ZM453.673 842.7C457.917 842.7 461.518 838.842 461.518 834.468C461.518 830.095 457.917 826.623 453.673 826.623H438.495V842.571H453.673V842.7Z" fill="white"/>
<path d="M484.924 874.081L489.683 865.592C490.454 864.306 492.512 864.435 493.155 864.949C493.541 865.206 501.001 870.608 507.689 870.608C514.378 870.608 514.763 868.036 514.763 864.435C514.763 860.833 511.162 856.846 504.217 854.145C495.342 850.672 484.281 843.856 484.281 831.508C484.281 819.161 492.126 811.058 507.947 811.058C523.767 811.058 526.854 816.46 529.812 818.775C531.098 819.547 530.841 821.347 530.455 821.99L525.182 829.836C524.41 830.994 522.609 831.894 521.709 831.122C520.808 830.608 513.349 824.949 507.046 824.949C500.744 824.949 500.615 827.392 500.615 830.222C500.615 833.052 503.702 836.91 511.805 840.126C519.78 843.341 532.513 849.515 532.513 863.534C532.513 877.554 523.381 884.757 508.332 884.757C493.284 884.757 487.625 879.226 485.31 876.911C484.281 875.882 484.023 875.496 484.795 874.081" fill="white"/>
<path d="M485.695 806.296C486.338 813.241 481.194 819.672 479.007 819.801C477.978 819.801 478.621 817.743 477.849 815.428C475.92 810.154 471.676 812.598 470.261 807.325C469.103 803.209 472.576 798.964 477.206 798.579C482.48 798.064 485.309 801.665 485.695 806.296Z" fill="white"/>
<path d="M268.203 814.018C268.203 812.989 268.975 812.089 270.132 812.089H282.351C283.38 812.089 284.28 812.989 284.28 814.018V868.81H306.789C307.946 868.81 308.718 869.71 308.718 870.739V881.929C308.718 882.958 307.946 883.858 306.789 883.858H270.132C268.975 883.858 268.203 882.958 268.203 881.929V814.018Z" fill="white"/>
<path d="M18.8335 461.737C-6.08681 427.001 11.604 379.626 52.7196 370.993L585.4 259.145C636.48 248.419 687.617 283.119 696.687 334.662V334.662C705.582 385.215 670.318 431.394 619.133 436.22L74.9196 487.528C53.2239 489.573 31.7047 479.678 18.8335 461.737V461.737Z" fill="#C0171D"/>
<path fill-rule="evenodd" clip-rule="evenodd" d="M610.906 358.668L692.5 240.832L576.508 228.684L533.748 307.217L493.446 228.684L380.894 252.547L463.465 376.205L610.906 358.668Z" fill="white"/>
<path d="M683.162 502.9L596.659 379.242L610.906 358.668L463.465 376.205L398.908 466.027L373.03 502.032L479.193 535.875L523.765 459.777L531.291 446.928L580.44 531.102L683.162 502.9Z" fill="#1195C1"/>
<path d="M525.273 460.66L531.289 450.389L578.932 531.983L579.608 533.142L580.903 532.787L683.625 504.584L686.014 503.928L684.594 501.898L598.788 379.237L612.342 359.663L693.937 241.827L695.616 239.402L692.682 239.095L576.69 226.946L575.531 226.825L574.974 227.848L533.794 303.48L495 227.886L494.39 226.698L493.084 226.975L380.532 250.838L378.01 251.373L379.441 253.517L461.34 376.168L397.489 465.007L371.612 501.012L370.208 502.966L372.5 503.696L478.662 537.54L479.994 537.964L480.7 536.758L525.273 460.66Z" stroke="#790004" stroke-width="3.49385"/>
<path d="M374.589 300.32L294.808 303.637L300.43 369.2L370.841 364.689L374.589 300.32Z" fill="#B59507"/>
<path fill-rule="evenodd" clip-rule="evenodd" d="M368.591 403.338L303.6 406.163L308.581 464.238L365.197 461.632L368.591 403.338Z" fill="#447C1C"/>
<path d="M303.6 406.163L368.591 403.338L370.841 364.689L300.43 369.2L303.6 406.163Z" fill="#A90D1D"/>
<path d="M376.333 300.422L376.445 298.495L374.516 298.575L294.735 301.891L292.911 301.967L293.067 303.786L298.69 369.349L301.86 406.312L306.84 464.387L306.984 466.06L308.661 465.983L365.278 463.378L366.85 463.305L366.941 461.734L370.335 403.44L372.585 364.791L376.333 300.422Z" stroke="#790004" stroke-width="3.49385"/>
<path d="M102.405 464.237L105.357 377.778L42.971 383.936C41.8977 397.28 40.6008 410.664 39.0803 424.087C37.6492 437.51 36.2182 450.893 34.7871 464.237H102.405Z" fill="#B59507"/>
<path d="M208.796 370.671C208.885 372.803 208.93 374.303 208.93 375.172C208.93 382.594 208.685 390.015 208.195 397.437L273.8 395.317C273.843 392.71 273.865 390.101 273.865 387.49C273.865 381.884 273.686 375.725 273.328 369.013C273.06 362.302 272.344 355.551 271.181 348.76C270.019 341.97 268.274 335.416 265.949 329.1C263.713 322.783 260.538 317.177 256.423 312.282C252.399 307.386 247.345 303.478 241.263 300.556C235.181 297.556 227.802 296.056 219.126 296.056C214.565 296.056 210.406 296.529 206.649 297.477C202.893 298.424 199.404 299.767 196.184 301.504C192.965 303.162 189.879 305.175 186.927 307.544C184.065 309.913 181.203 312.479 178.341 315.243C176.731 311.453 174.853 308.334 172.706 305.886C170.559 303.359 168.055 301.385 165.193 299.964C162.42 298.543 159.29 297.556 155.802 297.003C152.313 296.371 148.378 296.056 143.995 296.056C140.597 296.056 137.287 296.608 134.067 297.714C130.937 298.819 127.941 300.28 125.078 302.096C122.306 303.833 119.667 305.847 117.163 308.136C114.658 310.347 112.422 312.558 110.455 314.769L110.723 301.03L46.8617 303.399C46.8617 316.822 46.504 330.245 45.7884 343.668C45.0729 357.091 44.1338 370.513 42.971 383.936L105.357 377.778C105.446 376.593 105.491 374.817 105.491 372.448C105.58 370 105.714 367.355 105.893 364.513C106.162 361.67 106.519 358.788 106.966 355.867C107.503 352.866 108.219 350.142 109.113 347.694C110.097 345.247 111.349 343.273 112.87 341.773C114.39 340.193 116.268 339.404 118.504 339.404C119.936 339.404 121.143 340.233 122.127 341.891C123.111 343.549 123.916 345.681 124.542 348.287C125.257 350.813 125.839 353.616 126.286 356.696C126.733 359.775 127.046 362.736 127.225 365.579C127.493 368.421 127.672 370.987 127.762 373.277C127.851 375.567 127.896 377.146 127.896 378.015L186.927 374.935C186.748 371.619 186.659 368.303 186.659 364.986C186.659 363.091 186.748 360.644 186.927 357.643C187.106 354.564 187.598 351.563 188.403 348.642C189.297 345.721 190.639 343.233 192.428 341.18C194.217 339.049 196.676 337.983 199.807 337.983C201.149 337.983 202.311 338.772 203.295 340.351C204.279 341.931 205.084 343.983 205.71 346.51C206.426 348.958 206.962 351.682 207.32 354.682C207.767 357.604 208.08 360.446 208.259 363.21C208.527 365.973 208.706 368.461 208.796 370.671Z" fill="white"/>
<path d="M187.196 385.121C187.196 381.647 187.106 378.251 186.927 374.935L127.896 378.015C127.896 391.832 127.091 405.611 125.481 419.349L186.361 417.406C186.917 406.675 187.196 395.913 187.196 385.121Z" fill="#1195C1"/>
<path fill-rule="evenodd" clip-rule="evenodd" d="M120.114 460.447C122.172 446.708 123.96 433.009 125.481 419.349L186.361 417.406C186.286 418.844 186.207 420.281 186.122 421.718C185.496 433.878 184.691 446.077 183.707 458.315L120.114 460.447Z" fill="#A75D18"/>
<path d="M269.84 454.999C270.913 443.708 271.852 432.456 272.657 421.244C273.276 412.625 273.657 403.983 273.8 395.317L208.195 397.437C207.772 403.833 207.167 410.229 206.381 416.625C204.771 430.364 202.937 444.103 200.88 457.842L269.84 454.999Z" fill="#692C66"/>
<path d="M208.306 395.685C208.722 388.848 208.93 382.01 208.93 375.172C208.93 374.303 208.885 372.803 208.796 370.671C208.706 368.461 208.527 365.973 208.259 363.21C208.08 360.446 207.767 357.604 207.32 354.682C206.962 351.682 206.426 348.958 205.71 346.51C205.084 343.983 204.279 341.931 203.295 340.351C202.311 338.772 201.148 337.983 199.807 337.983C196.676 337.983 194.217 339.049 192.428 341.18C190.639 343.233 189.297 345.721 188.403 348.642L190.087 349.106C190.085 349.114 190.083 349.122 190.081 349.13M208.306 395.685L190.081 349.13M208.306 395.685L208.138 395.691L208.195 397.437L208.306 395.685ZM190.081 349.13C189.313 351.923 188.843 354.794 188.671 357.745L188.671 357.747C188.493 360.731 188.406 363.14 188.406 364.986C188.406 368.271 188.494 371.556 188.672 374.841C188.852 378.19 188.943 381.617 188.943 385.121C188.943 395.943 188.664 406.735 188.106 417.497C188.031 418.937 187.951 420.376 187.867 421.815C187.24 433.989 186.434 446.202 185.449 458.455L185.324 460.009L183.766 460.061L120.173 462.193L118.076 462.263L118.387 460.188C120.441 446.471 122.227 432.794 123.745 419.156L123.746 419.146C125.348 405.475 126.149 391.764 126.149 378.015C126.149 377.185 126.106 375.637 126.016 373.345C125.928 371.094 125.752 368.561 125.486 365.743L125.483 365.716L125.482 365.688C125.306 362.897 124.998 359.984 124.557 356.947C124.119 353.93 123.552 351.203 122.861 348.763L122.851 348.729L122.843 348.695C122.243 346.198 121.492 344.244 120.624 342.782C119.832 341.447 119.11 341.151 118.504 341.151C116.732 341.151 115.312 341.755 114.128 342.984L114.113 343L114.097 343.016C112.787 344.309 111.657 346.057 110.744 348.321C109.896 350.647 109.209 353.255 108.69 356.153C108.251 359.025 107.899 361.858 107.635 364.65C107.459 367.456 107.326 370.066 107.238 372.48C107.237 374.82 107.194 376.627 107.101 377.873L104.151 464.297L104.093 465.984H102.405H34.7871H32.8428L33.0501 464.051C34.4812 450.707 35.9122 437.324 37.3432 423.902L37.3444 423.89C38.8629 410.486 40.1579 397.121 41.2297 383.796L41.2306 383.786C42.3917 370.382 43.3295 356.978 44.044 343.575C44.7579 330.183 45.1148 316.791 45.1148 303.399V301.715L46.797 301.653L110.658 299.284L112.506 299.216L112.47 301.064L112.289 310.299C113.455 309.143 114.691 307.989 115.995 306.837C118.57 304.484 121.287 302.41 124.147 300.618C127.116 298.734 130.23 297.216 133.486 296.067L133.493 296.064L133.5 296.062C136.902 294.894 140.403 294.309 143.995 294.309C148.451 294.309 152.487 294.629 156.094 295.281C159.729 295.859 163.03 296.894 165.98 298.404C169.054 299.933 171.739 302.052 174.029 304.745C175.862 306.838 177.487 309.359 178.914 312.286C181.212 310.133 183.512 308.103 185.813 306.198L185.824 306.19L185.834 306.182C188.868 303.747 192.047 301.671 195.37 299.958C198.72 298.153 202.339 296.762 206.222 295.783C210.14 294.795 214.445 294.309 219.126 294.309C227.994 294.309 235.65 295.841 242.028 298.986C248.317 302.008 253.573 306.066 257.767 311.165C262.017 316.224 265.291 322.009 267.592 328.506C269.953 334.922 271.723 341.576 272.903 348.466C274.078 355.325 274.801 362.147 275.073 368.932C275.432 375.664 275.611 381.85 275.611 387.49C275.611 390.111 275.59 392.729 275.547 395.346C275.403 404.044 275.021 412.718 274.4 421.369C273.594 432.595 272.653 443.86 271.579 455.164L271.435 456.682L269.912 456.744L200.952 459.587L198.839 459.674L199.152 457.583C201.207 443.862 203.038 430.142 204.646 416.422L204.647 416.412C205.43 410.048 206.031 403.685 206.451 397.322C206.939 389.938 207.183 382.555 207.183 375.172C207.183 374.344 207.14 372.877 207.05 370.745L207.05 370.742C206.962 368.571 206.786 366.117 206.52 363.379L206.518 363.351L206.516 363.323C206.34 360.613 206.033 357.821 205.593 354.947L205.589 354.918L205.585 354.889C205.237 351.968 204.717 349.34 204.033 347L204.023 346.965L204.014 346.93C203.416 344.516 202.669 342.65 201.812 341.275C201.011 339.989 200.326 339.73 199.807 339.73C197.12 339.73 195.179 340.619 193.766 342.303L193.756 342.316L193.745 342.328C192.141 344.169 190.912 346.425 190.081 349.13ZM201.142 456.082L200.808 456.096L200.88 457.842L202.608 458.1C202.624 457.99 202.641 457.879 202.658 457.768L269.84 454.999C270.913 443.708 271.852 432.456 272.657 421.244C273.234 413.205 273.604 405.146 273.768 397.066L273.856 397.063L273.8 395.317C273.8 395.317 273.8 395.317 273.8 395.317C273.843 392.71 273.865 390.101 273.865 387.49C273.865 381.884 273.686 375.725 273.328 369.013L201.142 456.082Z" stroke="#7B4732" stroke-width="3.49385"/>
<path fill-rule="evenodd" clip-rule="evenodd" d="M617.131 353.17L698.726 235.334L582.734 223.186L539.974 301.719L499.672 223.186L387.12 247.049L469.69 370.707L617.131 353.17Z" fill="white"/>
<path d="M689.388 497.402L602.885 373.744L617.131 353.17L469.69 370.707L405.134 460.529L379.256 496.534L485.418 530.377L529.991 454.279L537.516 441.43L586.666 525.604L689.388 497.402Z" fill="#0FC4FF"/>
<path d="M531.498 455.161L537.514 444.891L585.157 526.485L585.834 527.644L587.128 527.289L689.85 499.086L692.239 498.43L690.819 496.4L605.013 373.739L618.568 354.165L700.162 236.329L701.841 233.904L698.908 233.597L582.916 221.448L581.757 221.327L581.2 222.35L540.02 297.982L501.226 222.388L500.616 221.2L499.309 221.477L386.757 245.34L384.235 245.875L385.667 248.019L467.565 370.67L403.715 459.509L377.837 495.514L376.433 497.468L378.725 498.198L484.888 532.041L486.219 532.466L486.926 531.26L531.498 455.161Z" stroke="#790004" stroke-width="3.49385"/>
<path d="M380.815 294.822L301.034 298.139L306.657 363.702L377.068 359.191L380.815 294.822Z" fill="#FFD100"/>
<path fill-rule="evenodd" clip-rule="evenodd" d="M374.818 397.84L309.827 400.665L314.807 458.74L371.424 456.134L374.818 397.84Z" fill="#68B82F"/>
<path d="M309.827 400.665L374.818 397.84L377.068 359.191L306.657 363.702L309.827 400.665Z" fill="#EF0019"/>
<path d="M382.559 294.924L382.672 292.997L380.743 293.077L300.962 296.393L299.138 296.469L299.294 298.288L304.916 363.851L308.086 400.814L313.067 458.889L313.21 460.562L314.888 460.485L371.504 457.88L373.077 457.807L373.168 456.236L376.562 397.942L378.812 359.293L382.559 294.924Z" stroke="#790004" stroke-width="3.49385"/>
<path d="M108.632 458.739L111.583 372.28L49.1976 378.438C48.1243 391.782 46.8274 405.166 45.3069 418.589C43.8758 432.012 42.4447 445.395 41.0137 458.739H108.632Z" fill="#FFD100"/>
<path d="M215.022 365.173C215.112 367.305 215.156 368.805 215.156 369.674C215.156 377.096 214.911 384.517 214.421 391.939L280.027 389.819C280.07 387.212 280.091 384.603 280.091 381.992C280.091 376.385 279.912 370.227 279.554 363.515C279.286 356.804 278.571 350.053 277.408 343.262C276.245 336.472 274.501 329.918 272.176 323.602C269.939 317.285 266.764 311.679 262.65 306.784C258.625 301.888 253.572 297.98 247.49 295.058C241.408 292.058 234.029 290.558 225.353 290.558C220.791 290.558 216.632 291.031 212.876 291.979C209.119 292.926 205.631 294.269 202.411 296.006C199.191 297.664 196.105 299.677 193.154 302.046C190.292 304.415 187.43 306.981 184.567 309.745C182.958 305.955 181.079 302.836 178.933 300.388C176.786 297.861 174.282 295.887 171.42 294.466C168.647 293.045 165.516 292.058 162.028 291.505C158.54 290.873 154.605 290.558 150.222 290.558C146.823 290.558 143.514 291.11 140.294 292.216C137.163 293.321 134.167 294.782 131.305 296.598C128.532 298.335 125.894 300.348 123.389 302.638C120.885 304.849 118.649 307.06 116.681 309.271L116.95 295.532L53.0883 297.901C53.0883 311.324 52.7305 324.747 52.015 338.17C51.2995 351.593 50.3603 365.015 49.1976 378.438L111.583 372.28C111.673 371.095 111.717 369.319 111.717 366.95C111.807 364.502 111.941 361.857 112.12 359.015C112.388 356.172 112.746 353.29 113.193 350.369C113.73 347.368 114.445 344.644 115.34 342.196C116.324 339.749 117.576 337.775 119.096 336.275C120.617 334.695 122.495 333.906 124.731 333.906C126.162 333.906 127.37 334.735 128.353 336.393C129.337 338.051 130.142 340.183 130.768 342.789C131.484 345.315 132.065 348.118 132.512 351.198C132.96 354.277 133.273 357.238 133.452 360.081C133.72 362.923 133.899 365.489 133.988 367.779C134.078 370.069 134.122 371.648 134.122 372.516L193.154 369.437C192.975 366.121 192.886 362.805 192.886 359.488C192.886 357.593 192.975 355.146 193.154 352.145C193.333 349.066 193.825 346.065 194.63 343.144C195.524 340.222 196.866 337.735 198.655 335.682C200.443 333.55 202.903 332.485 206.033 332.485C207.375 332.485 208.538 333.274 209.522 334.853C210.506 336.432 211.31 338.485 211.937 341.012C212.652 343.46 213.189 346.184 213.547 349.184C213.994 352.106 214.307 354.948 214.486 357.712C214.754 360.475 214.933 362.963 215.022 365.173Z" fill="white"/>
<path d="M193.422 379.623C193.422 376.149 193.333 372.753 193.154 369.437L134.122 372.516C134.122 386.334 133.317 400.112 131.707 413.851L192.588 411.908C193.144 401.177 193.422 390.415 193.422 379.623Z" fill="#0FC4FF"/>
<path fill-rule="evenodd" clip-rule="evenodd" d="M126.341 454.949C128.398 441.21 130.187 427.511 131.707 413.851L192.588 411.908C192.513 413.346 192.433 414.783 192.349 416.22C191.723 428.38 190.918 440.579 189.934 452.817L126.341 454.949Z" fill="#FF9430"/>
<path d="M276.066 449.501C277.14 438.21 278.079 426.958 278.884 415.746C279.502 407.127 279.883 398.485 280.027 389.819L214.421 391.939C213.999 398.335 213.394 404.731 212.607 411.127C210.997 424.866 209.164 438.605 207.107 452.344L276.066 449.501Z" fill="#A1489C"/>
<path d="M214.532 390.187C214.948 383.35 215.156 376.512 215.156 369.674C215.156 368.805 215.112 367.305 215.022 365.173C214.933 362.963 214.754 360.475 214.486 357.712C214.307 354.948 213.994 352.106 213.547 349.184C213.189 346.184 212.652 343.46 211.937 341.012C211.31 338.485 210.506 336.432 209.522 334.853C208.538 333.274 207.375 332.485 206.033 332.485C202.903 332.485 200.443 333.55 198.654 335.682C196.866 337.735 195.524 340.222 194.63 343.144L196.314 343.608C196.312 343.616 196.309 343.624 196.307 343.632M214.532 390.187L196.307 343.632M214.532 390.187L214.365 390.193L214.421 391.939L214.532 390.187ZM196.307 343.632C195.539 346.425 195.069 349.296 194.898 352.247L194.898 352.249C194.72 355.232 194.632 357.642 194.632 359.488C194.632 362.773 194.721 366.058 194.898 369.343C195.079 372.692 195.169 376.119 195.169 379.623C195.169 390.445 194.89 401.237 194.332 411.999C194.257 413.439 194.178 414.878 194.093 416.317C193.466 428.491 192.66 440.704 191.675 452.957L191.55 454.511L189.992 454.563L126.4 456.695L124.303 456.765L124.613 454.69C126.667 440.973 128.453 427.296 129.971 413.658L129.972 413.648C131.574 399.977 132.375 386.266 132.375 372.516C132.375 371.687 132.332 370.139 132.243 367.847C132.155 365.596 131.978 363.063 131.712 360.245L131.71 360.218L131.708 360.19C131.532 357.399 131.225 354.486 130.784 351.449C130.346 348.432 129.779 345.705 129.088 343.265L129.078 343.231L129.07 343.197C128.47 340.7 127.718 338.746 126.851 337.284C126.059 335.949 125.337 335.653 124.731 335.653C122.959 335.653 121.538 336.257 120.355 337.486L120.339 337.502L120.323 337.518C119.013 338.811 117.884 340.559 116.971 342.822C116.123 345.149 115.436 347.757 114.917 350.655C114.477 353.527 114.126 356.36 113.862 359.151C113.685 361.958 113.553 364.568 113.464 366.982C113.464 369.322 113.42 371.129 113.328 372.375L110.377 458.799L110.32 460.486H108.632H41.0137H39.0694L39.2767 458.553C40.7077 445.209 42.1388 431.826 43.5698 418.404L43.571 418.392C45.0894 404.988 46.3845 391.623 47.4563 378.298L47.4571 378.288C48.6182 364.884 49.556 351.48 50.2705 338.077C50.9844 324.685 51.3414 311.293 51.3414 297.901V296.217L53.0235 296.155L116.885 293.786L118.732 293.718L118.696 295.566L118.516 304.801C119.682 303.645 120.917 302.491 122.222 301.339C124.797 298.986 127.514 296.912 130.373 295.12C133.343 293.236 136.456 291.718 139.712 290.569L139.719 290.566L139.727 290.563C143.129 289.395 146.63 288.811 150.222 288.811C154.678 288.811 158.714 289.131 162.321 289.783C165.956 290.361 169.257 291.396 172.206 292.906C175.281 294.435 177.965 296.554 180.255 299.247C182.089 301.34 183.713 303.861 185.141 306.788C187.438 304.635 189.738 302.605 192.04 300.7L192.05 300.692L192.06 300.684C195.095 298.249 198.273 296.173 201.597 294.46C204.947 292.655 208.566 291.264 212.448 290.285C216.367 289.297 220.672 288.811 225.353 288.811C234.221 288.811 241.876 290.343 248.255 293.488C254.544 296.51 259.8 300.568 263.994 305.667C268.244 310.726 271.517 316.511 273.819 323.008C276.18 329.424 277.95 336.078 279.13 342.968C280.304 349.827 281.028 356.649 281.299 363.434C281.658 370.166 281.838 376.352 281.838 381.992C281.838 384.612 281.816 387.231 281.773 389.848C281.63 398.546 281.247 407.22 280.626 415.871C279.82 427.097 278.88 438.362 277.805 449.666L277.661 451.184L276.138 451.246L207.179 454.089L205.066 454.176L205.379 452.085C207.433 438.364 209.265 424.644 210.872 410.924L210.874 410.914C211.656 404.55 212.258 398.187 212.678 391.824C213.166 384.44 213.41 377.057 213.41 369.674C213.41 368.846 213.366 367.379 213.277 365.247L213.277 365.244C213.189 363.073 213.013 360.619 212.747 357.881L212.744 357.853L212.742 357.825C212.567 355.115 212.26 352.323 211.82 349.449L211.815 349.42L211.812 349.391C211.464 346.47 210.944 343.842 210.26 341.502L210.25 341.467L210.241 341.432C209.643 339.018 208.896 337.152 208.039 335.777C207.238 334.491 206.552 334.231 206.033 334.231C203.347 334.231 201.406 335.121 199.993 336.805L199.982 336.818L199.972 336.83C198.367 338.671 197.138 340.927 196.307 343.632ZM207.369 450.584L207.035 450.598L207.107 452.344L208.834 452.602C208.851 452.492 208.868 452.381 208.884 452.27L276.066 449.501C277.14 438.21 278.079 426.958 278.884 415.746C279.461 407.707 279.831 399.648 279.994 391.568L280.083 391.565L280.027 389.819C280.027 389.819 280.027 389.819 280.027 389.819C280.07 387.212 280.091 384.603 280.091 381.992C280.091 376.385 279.912 370.227 279.554 363.515L207.369 450.584Z" stroke="#573325" stroke-width="3.49385"/>
<path fill-rule="evenodd" clip-rule="evenodd" d="M623.226 347.225L704.821 229.389L588.828 217.24L546.069 295.774L505.766 217.24L393.214 241.104L475.785 364.762L623.226 347.225Z" fill="white"/>
<path d="M695.482 491.456L608.98 367.799L623.226 347.225L475.785 364.762L411.228 454.583L385.351 490.589L491.513 524.432L536.086 448.333L543.611 435.485L592.76 519.659L695.482 491.456Z" fill="#0FC4FF"/>
<path d="M537.593 449.216L543.609 438.946L591.252 520.54L591.929 521.699L593.223 521.344L695.945 493.141L698.334 492.485L696.914 490.455L611.108 367.794L624.662 348.219L706.257 230.384L707.936 227.959L705.003 227.652L589.01 215.503L587.851 215.381L587.294 216.405L546.114 292.037L507.32 216.443L506.711 215.254L505.404 215.531L392.852 239.395L390.33 239.93L391.762 242.074L473.66 364.725L409.81 453.564L383.932 489.569L382.528 491.522L384.82 492.253L490.982 526.096L492.314 526.521L493.02 525.315L537.593 449.216Z" stroke="#790004" stroke-width="3.49385"/>
<path d="M386.909 288.876L307.128 292.192L312.751 357.755L383.162 353.245L386.909 288.876Z" fill="#FFD100"/>
<path fill-rule="evenodd" clip-rule="evenodd" d="M380.912 391.894L315.921 394.719L320.901 452.794L377.518 450.188L380.912 391.894Z" fill="#68B82F"/>
<path d="M315.921 394.719L380.912 391.894L383.162 353.245L312.751 357.755L315.921 394.719Z" fill="#EF0019"/>
<path d="M388.653 288.978L388.765 287.05L386.837 287.131L307.055 290.447L305.231 290.523L305.387 292.342L311.01 357.905L314.18 394.868L319.161 452.943L319.304 454.616L320.982 454.539L377.598 451.933L379.17 451.861L379.262 450.29L382.656 391.995L384.906 353.346L388.653 288.978Z" stroke="#790004" stroke-width="3.49385"/>
<path d="M114.725 452.793L117.677 366.333L55.2913 372.492C54.218 385.836 52.9211 399.22 51.4006 412.642C49.9696 426.065 48.5385 439.449 47.1074 452.793H114.725Z" fill="#FFD100"/>
<path d="M221.116 359.227C221.206 361.359 221.25 362.859 221.25 363.728C221.25 371.149 221.005 378.571 220.515 385.992L286.12 383.873C286.163 381.266 286.185 378.657 286.185 376.045C286.185 370.439 286.006 364.28 285.648 357.569C285.38 350.857 284.664 344.107 283.502 337.316C282.339 330.526 280.595 323.972 278.269 317.655C276.033 311.339 272.858 305.733 268.744 300.837C264.719 295.942 259.665 292.033 253.583 289.112C247.501 286.112 240.122 284.611 231.447 284.611C226.885 284.611 222.726 285.085 218.969 286.033C215.213 286.98 211.725 288.322 208.505 290.059C205.285 291.718 202.199 293.731 199.248 296.1C196.385 298.469 193.523 301.035 190.661 303.798C189.051 300.008 187.173 296.889 185.026 294.442C182.88 291.915 180.375 289.941 177.513 288.52C174.741 287.099 171.61 286.112 168.122 285.559C164.634 284.927 160.698 284.611 156.316 284.611C152.917 284.611 149.608 285.164 146.388 286.269C143.257 287.375 140.261 288.836 137.399 290.652C134.626 292.389 131.988 294.402 129.483 296.692C126.979 298.903 124.743 301.114 122.775 303.324L123.043 289.586L59.182 291.954C59.182 305.377 58.8243 318.8 58.1087 332.223C57.3932 345.646 56.4541 359.069 55.2913 372.492L117.677 366.333C117.766 365.149 117.811 363.372 117.811 361.004C117.9 358.556 118.035 355.911 118.214 353.068C118.482 350.226 118.84 347.344 119.287 344.422C119.823 341.422 120.539 338.698 121.433 336.25C122.417 333.802 123.669 331.828 125.19 330.328C126.71 328.749 128.589 327.96 130.825 327.96C132.256 327.96 133.463 328.789 134.447 330.447C135.431 332.105 136.236 334.237 136.862 336.842C137.578 339.369 138.159 342.172 138.606 345.251C139.053 348.331 139.366 351.292 139.545 354.134C139.814 356.977 139.993 359.543 140.082 361.833C140.171 364.122 140.216 365.702 140.216 366.57L199.248 363.491C199.069 360.175 198.979 356.858 198.979 353.542C198.979 351.647 199.069 349.199 199.248 346.199C199.426 343.12 199.918 340.119 200.723 337.198C201.618 334.276 202.959 331.789 204.748 329.736C206.537 327.604 208.997 326.538 212.127 326.538C213.469 326.538 214.632 327.328 215.615 328.907C216.599 330.486 217.404 332.539 218.03 335.066C218.746 337.513 219.283 340.238 219.64 343.238C220.087 346.159 220.401 349.002 220.579 351.765C220.848 354.529 221.027 357.016 221.116 359.227Z" fill="white"/>
<path d="M199.516 373.676C199.516 370.202 199.426 366.807 199.248 363.491L140.216 366.57C140.216 380.388 139.411 394.166 137.801 407.905L198.681 405.962C199.238 395.231 199.516 384.469 199.516 373.676Z" fill="#0FC4FF"/>
<path fill-rule="evenodd" clip-rule="evenodd" d="M132.435 449.003C134.492 435.264 136.281 421.565 137.801 407.905L198.681 405.962C198.607 407.4 198.527 408.837 198.443 410.274C197.817 422.433 197.012 434.632 196.028 446.871L132.435 449.003Z" fill="#FF9430"/>
<path d="M282.16 443.555C283.233 432.264 284.172 421.012 284.977 409.8C285.596 401.181 285.977 392.539 286.12 383.873L220.515 385.992C220.092 392.389 219.488 398.785 218.701 405.181C217.091 418.92 215.258 432.658 213.2 446.397L282.16 443.555Z" fill="#A1489C"/>
<path d="M220.626 384.241C221.042 377.403 221.25 370.565 221.25 363.728C221.25 362.859 221.206 361.359 221.116 359.227C221.027 357.016 220.848 354.529 220.579 351.765C220.401 349.002 220.087 346.159 219.64 343.238C219.283 340.238 218.746 337.513 218.03 335.066C217.404 332.539 216.599 330.486 215.615 328.907C214.632 327.328 213.469 326.538 212.127 326.538C208.997 326.538 206.537 327.604 204.748 329.736C202.959 331.789 201.618 334.276 200.723 337.198L202.408 337.662C202.405 337.67 202.403 337.678 202.401 337.686M220.626 384.241L202.401 337.686M220.626 384.241L220.458 384.246L220.515 385.992L220.626 384.241ZM202.401 337.686C201.633 340.479 201.163 343.35 200.992 346.3L200.991 346.303C200.814 349.286 200.726 351.696 200.726 353.542C200.726 356.827 200.815 360.112 200.992 363.397C201.173 366.746 201.263 370.172 201.263 373.676C201.263 384.499 200.984 395.291 200.426 406.052C200.351 407.492 200.272 408.932 200.187 410.37C199.56 422.545 198.754 434.758 197.769 447.011L197.644 448.565L196.086 448.617L132.493 450.749L130.396 450.819L130.707 448.744C132.761 435.027 134.547 421.349 136.065 407.712L136.066 407.702C137.668 394.03 138.469 380.32 138.469 366.57C138.469 365.74 138.426 364.193 138.336 361.901C138.248 359.65 138.072 357.116 137.806 354.298L137.804 354.271L137.802 354.244C137.626 351.453 137.318 348.539 136.877 345.502C136.439 342.486 135.872 339.759 135.181 337.318L135.172 337.285L135.163 337.25C134.564 334.754 133.812 332.8 132.945 331.338C132.152 330.003 131.431 329.706 130.825 329.706C129.053 329.706 127.632 330.31 126.448 331.54L126.433 331.556L126.417 331.572C125.107 332.864 123.978 334.612 123.065 336.876C122.217 339.202 121.53 341.811 121.01 344.709C120.571 347.581 120.219 350.413 119.955 353.205C119.779 356.012 119.646 358.622 119.558 361.036C119.558 363.376 119.514 365.183 119.422 366.428L116.471 452.852L116.414 454.54H114.725H47.1074H45.1631L45.3705 452.607C46.8015 439.263 48.2325 425.88 49.6635 412.457L49.6648 412.446C51.1832 399.042 52.4783 385.677 53.55 372.352L53.5509 372.341C54.712 358.938 55.6498 345.534 56.3643 332.13C57.0782 318.738 57.4351 305.346 57.4351 291.954V290.271L59.1173 290.209L122.979 287.84L124.826 287.771L124.79 289.62L124.61 298.855C125.776 297.699 127.011 296.544 128.316 295.392C130.89 293.039 133.607 290.966 136.467 289.174C139.437 287.29 142.55 285.772 145.806 284.622L145.813 284.62L145.82 284.617C149.223 283.449 152.724 282.864 156.316 282.864C160.772 282.864 164.808 283.185 168.414 283.836C172.049 284.414 175.351 285.45 178.3 286.96C181.375 288.488 184.059 290.608 186.349 293.3C188.183 295.394 189.807 297.914 191.234 300.842C193.532 298.688 195.832 296.659 198.134 294.754L198.144 294.746L198.154 294.737C201.188 292.302 204.367 290.227 207.69 288.514C211.04 286.708 214.66 285.318 218.542 284.339C222.461 283.35 226.766 282.864 231.447 282.864C240.314 282.864 247.97 284.397 254.348 287.541C260.638 290.564 265.894 294.622 270.087 299.721C274.337 304.78 277.611 310.565 279.912 317.062C282.274 323.478 284.044 330.132 285.223 337.021C286.398 343.88 287.121 350.703 287.393 357.488C287.752 364.22 287.932 370.406 287.932 376.045C287.932 378.666 287.91 381.285 287.867 383.902C287.723 392.6 287.341 401.274 286.72 409.925C285.914 421.151 284.974 432.416 283.899 443.72L283.755 445.237L282.232 445.3L213.272 448.143L211.16 448.23L211.473 446.139C213.527 432.418 215.358 418.698 216.966 404.978L216.967 404.968C217.75 398.604 218.351 392.24 218.772 385.877C219.259 378.494 219.503 371.111 219.503 363.728C219.503 362.9 219.46 361.433 219.371 359.3L219.371 359.298C219.283 357.127 219.107 354.673 218.841 351.934L218.838 351.906L218.836 351.878C218.661 349.169 218.354 346.377 217.913 343.502L217.909 343.474L217.906 343.445C217.557 340.523 217.038 337.896 216.354 335.556L216.343 335.521L216.335 335.486C215.737 333.072 214.989 331.206 214.133 329.831C213.331 328.545 212.646 328.285 212.127 328.285C209.441 328.285 207.499 329.175 206.086 330.859L206.076 330.871L206.065 330.884C204.461 332.725 203.232 334.98 202.401 337.686ZM213.463 444.638L213.129 444.652L213.2 446.397L214.928 446.656C214.945 446.545 214.961 446.435 214.978 446.324L282.16 443.555C283.233 432.264 284.172 421.012 284.977 409.8C285.555 401.761 285.925 393.702 286.088 385.622L286.177 385.619L286.12 383.873C286.12 383.873 286.12 383.873 286.12 383.873C286.163 381.266 286.185 378.657 286.185 376.045C286.185 370.439 286.006 364.28 285.648 357.569L213.463 444.638Z" stroke="#790004" stroke-width="3.49385"/>
<path d="M153.281 250.064C153.281 254.702 152.685 258.892 151.492 262.635C150.3 266.345 148.627 269.658 146.474 272.573C144.354 275.455 141.819 277.939 138.871 280.026C135.923 282.113 132.693 283.836 129.182 285.194C125.671 286.519 121.928 287.513 117.953 288.175C114.011 288.804 109.953 289.119 105.779 289.119C104.222 289.119 102.698 289.086 101.208 289.02C99.7171 288.92 98.1934 288.788 96.6365 288.622L98.0277 221.941C101.672 220.782 105.415 219.97 109.257 219.506C113.133 219.009 116.975 218.761 120.785 218.761C125.522 218.761 129.878 219.473 133.853 220.897C137.828 222.322 141.256 224.376 144.138 227.059C147.02 229.742 149.256 233.021 150.846 236.897C152.469 240.773 153.281 245.162 153.281 250.064ZM132.909 253.244C132.942 251.456 132.743 249.733 132.312 248.077C131.915 246.421 131.236 244.963 130.275 243.704C129.348 242.412 128.155 241.385 126.698 240.624C125.24 239.829 123.501 239.398 121.48 239.332L119.493 270.138C121.48 269.84 123.286 269.194 124.909 268.2C126.532 267.174 127.923 265.931 129.083 264.474C130.275 262.983 131.186 261.344 131.816 259.555C132.478 257.733 132.842 255.861 132.909 253.94V253.244ZM205.553 219.655L202.77 240.624C201.809 240.359 200.849 240.176 199.888 240.077C198.927 239.978 197.967 239.928 197.006 239.928C194.555 239.928 192.22 240.259 190 240.922C187.781 241.551 185.81 242.528 184.087 243.853C182.398 245.178 181.04 246.835 180.013 248.822C179.019 250.81 178.522 253.145 178.522 255.828C178.522 257.551 178.787 259.041 179.317 260.3C179.88 261.559 180.659 262.602 181.653 263.43C182.646 264.259 183.822 264.871 185.18 265.269C186.539 265.666 188.029 265.865 189.652 265.865C190.878 265.865 192.153 265.733 193.478 265.468C194.803 265.203 196.112 264.855 197.404 264.424C198.696 263.994 199.954 263.497 201.18 262.934C202.406 262.37 203.532 261.791 204.559 261.194L202.571 284.548C201.279 285.21 199.872 285.807 198.348 286.337C196.857 286.833 195.317 287.281 193.727 287.678C192.137 288.043 190.547 288.324 188.957 288.523C187.367 288.722 185.843 288.821 184.385 288.821C180.179 288.821 176.253 288.043 172.609 286.486C168.966 284.929 165.802 282.792 163.119 280.076C160.436 277.36 158.316 274.163 156.759 270.486C155.235 266.776 154.473 262.784 154.473 258.511C154.473 252.847 155.285 247.514 156.908 242.512C158.531 237.477 160.916 233.071 164.063 229.295C167.21 225.518 171.102 222.537 175.74 220.351C180.41 218.165 185.777 217.071 191.839 217.071C194.124 217.071 196.46 217.254 198.845 217.618C201.263 217.982 203.499 218.662 205.553 219.655Z" fill="#C0171D"/>
<mask id="path-29-inside-1_1647_767" fill="white">
<path d="M158.399 250.064C158.399 254.702 157.803 258.892 156.61 262.635C155.418 266.345 153.745 269.658 151.592 272.573C149.472 275.455 146.938 277.939 143.989 280.026C141.041 282.113 137.812 283.836 134.3 285.194C130.789 286.519 127.046 287.513 123.071 288.175C119.129 288.804 115.071 289.119 110.897 289.119C109.34 289.119 107.817 289.086 106.326 289.02C104.835 288.92 103.312 288.788 101.755 288.622L103.146 221.941C106.79 220.782 110.533 219.97 114.375 219.506C118.251 219.009 122.094 218.761 125.903 218.761C130.64 218.761 134.996 219.473 138.971 220.897C142.946 222.322 146.374 224.376 149.256 227.059C152.138 229.742 154.374 233.021 155.964 236.897C157.587 240.773 158.399 245.162 158.399 250.064ZM138.027 253.244C138.06 251.456 137.861 249.733 137.431 248.077C137.033 246.421 136.354 244.963 135.393 243.704C134.466 242.412 133.273 241.385 131.816 240.624C130.358 239.829 128.619 239.398 126.599 239.332L124.611 270.138C126.599 269.84 128.404 269.194 130.027 268.2C131.65 267.174 133.042 265.931 134.201 264.474C135.393 262.983 136.304 261.344 136.934 259.555C137.596 257.733 137.961 255.861 138.027 253.94V253.244ZM210.671 219.655L207.888 240.624C206.928 240.359 205.967 240.176 205.006 240.077C204.046 239.978 203.085 239.928 202.124 239.928C199.673 239.928 197.338 240.259 195.118 240.922C192.899 241.551 190.928 242.528 189.206 243.853C187.516 245.178 186.158 246.835 185.131 248.822C184.137 250.81 183.64 253.145 183.64 255.828C183.64 257.551 183.905 259.041 184.435 260.3C184.999 261.559 185.777 262.602 186.771 263.43C187.765 264.259 188.941 264.871 190.299 265.269C191.657 265.666 193.147 265.865 194.771 265.865C195.996 265.865 197.272 265.733 198.597 265.468C199.922 265.203 201.23 264.855 202.522 264.424C203.814 263.994 205.073 263.497 206.298 262.934C207.524 262.37 208.65 261.791 209.677 261.194L207.689 284.548C206.398 285.21 204.99 285.807 203.466 286.337C201.975 286.833 200.435 287.281 198.845 287.678C197.255 288.043 195.665 288.324 194.075 288.523C192.485 288.722 190.961 288.821 189.504 288.821C185.297 288.821 181.371 288.043 177.728 286.486C174.084 284.929 170.92 282.792 168.237 280.076C165.554 277.36 163.434 274.163 161.877 270.486C160.353 266.776 159.591 262.784 159.591 258.511C159.591 252.847 160.403 247.514 162.026 242.512C163.649 237.477 166.034 233.071 169.181 229.295C172.328 225.518 176.22 222.537 180.858 220.351C185.529 218.165 190.895 217.071 196.957 217.071C199.242 217.071 201.578 217.254 203.963 217.618C206.381 217.982 208.617 218.662 210.671 219.655Z"/>
</mask>
<path d="M158.399 250.064C158.399 254.702 157.803 258.892 156.61 262.635C155.418 266.345 153.745 269.658 151.592 272.573C149.472 275.455 146.938 277.939 143.989 280.026C141.041 282.113 137.812 283.836 134.3 285.194C130.789 286.519 127.046 287.513 123.071 288.175C119.129 288.804 115.071 289.119 110.897 289.119C109.34 289.119 107.817 289.086 106.326 289.02C104.835 288.92 103.312 288.788 101.755 288.622L103.146 221.941C106.79 220.782 110.533 219.97 114.375 219.506C118.251 219.009 122.094 218.761 125.903 218.761C130.64 218.761 134.996 219.473 138.971 220.897C142.946 222.322 146.374 224.376 149.256 227.059C152.138 229.742 154.374 233.021 155.964 236.897C157.587 240.773 158.399 245.162 158.399 250.064ZM138.027 253.244C138.06 251.456 137.861 249.733 137.431 248.077C137.033 246.421 136.354 244.963 135.393 243.704C134.466 242.412 133.273 241.385 131.816 240.624C130.358 239.829 128.619 239.398 126.599 239.332L124.611 270.138C126.599 269.84 128.404 269.194 130.027 268.2C131.65 267.174 133.042 265.931 134.201 264.474C135.393 262.983 136.304 261.344 136.934 259.555C137.596 257.733 137.961 255.861 138.027 253.94V253.244ZM210.671 219.655L207.888 240.624C206.928 240.359 205.967 240.176 205.006 240.077C204.046 239.978 203.085 239.928 202.124 239.928C199.673 239.928 197.338 240.259 195.118 240.922C192.899 241.551 190.928 242.528 189.206 243.853C187.516 245.178 186.158 246.835 185.131 248.822C184.137 250.81 183.64 253.145 183.64 255.828C183.64 257.551 183.905 259.041 184.435 260.3C184.999 261.559 185.777 262.602 186.771 263.43C187.765 264.259 188.941 264.871 190.299 265.269C191.657 265.666 193.147 265.865 194.771 265.865C195.996 265.865 197.272 265.733 198.597 265.468C199.922 265.203 201.23 264.855 202.522 264.424C203.814 263.994 205.073 263.497 206.298 262.934C207.524 262.37 208.65 261.791 209.677 261.194L207.689 284.548C206.398 285.21 204.99 285.807 203.466 286.337C201.975 286.833 200.435 287.281 198.845 287.678C197.255 288.043 195.665 288.324 194.075 288.523C192.485 288.722 190.961 288.821 189.504 288.821C185.297 288.821 181.371 288.043 177.728 286.486C174.084 284.929 170.92 282.792 168.237 280.076C165.554 277.36 163.434 274.163 161.877 270.486C160.353 266.776 159.591 262.784 159.591 258.511C159.591 252.847 160.403 247.514 162.026 242.512C163.649 237.477 166.034 233.071 169.181 229.295C172.328 225.518 176.22 222.537 180.858 220.351C185.529 218.165 190.895 217.071 196.957 217.071C199.242 217.071 201.578 217.254 203.963 217.618C206.381 217.982 208.617 218.662 210.671 219.655Z" fill="white"/>
<path d="M156.61 262.635L158.257 263.165L158.259 263.161L156.61 262.635ZM151.592 272.573L150.2 271.545L150.198 271.548L151.592 272.573ZM134.3 285.194L134.911 286.813L134.918 286.81L134.924 286.807L134.3 285.194ZM123.071 288.175L123.344 289.884L123.355 289.882L123.071 288.175ZM106.326 289.02L106.211 290.746L106.23 290.747L106.249 290.748L106.326 289.02ZM101.755 288.622L100.025 288.586L99.9917 290.175L101.572 290.343L101.755 288.622ZM103.146 221.941L102.621 220.292L101.442 220.667L101.416 221.905L103.146 221.941ZM114.375 219.506L114.583 221.224L114.595 221.222L114.375 219.506ZM155.964 236.897L154.363 237.554L154.368 237.565L155.964 236.897ZM138.027 253.244L136.297 253.212L136.297 253.228V253.244H138.027ZM137.431 248.077L135.748 248.481L135.752 248.496L135.756 248.512L137.431 248.077ZM135.393 243.704L133.988 244.713L134.003 244.734L134.018 244.754L135.393 243.704ZM131.816 240.624L130.987 242.143L131.001 242.15L131.014 242.157L131.816 240.624ZM126.599 239.332L126.655 237.602L124.98 237.548L124.872 239.22L126.599 239.332ZM124.611 270.138L122.884 270.027L122.746 272.168L124.868 271.849L124.611 270.138ZM130.027 268.2L130.931 269.676L130.941 269.669L130.952 269.663L130.027 268.2ZM134.201 264.474L132.85 263.393L132.847 263.397L134.201 264.474ZM136.934 259.555L135.308 258.963L135.305 258.972L135.302 258.98L136.934 259.555ZM138.027 253.94L139.756 254L139.757 253.97V253.94H138.027ZM156.669 250.064C156.669 254.555 156.091 258.564 154.962 262.11L158.259 263.161C159.514 259.22 160.129 254.849 160.129 250.064H156.669ZM154.963 262.106C153.824 265.651 152.233 268.792 150.2 271.545L152.983 273.601C155.256 270.524 157.012 267.04 158.257 263.165L154.963 262.106ZM150.198 271.548C148.189 274.279 145.788 276.633 142.99 278.614L144.989 281.438C148.087 279.245 150.755 276.631 152.985 273.598L150.198 271.548ZM142.99 278.614C140.163 280.615 137.06 282.271 133.676 283.58L134.924 286.807C138.563 285.4 141.92 283.611 144.989 281.438L142.99 278.614ZM133.689 283.575C130.291 284.857 126.658 285.823 122.786 286.468L123.355 289.882C127.434 289.202 131.287 288.18 134.911 286.813L133.689 283.575ZM122.798 286.466C118.95 287.081 114.984 287.389 110.897 287.389V290.849C115.158 290.849 119.307 290.528 123.344 289.884L122.798 286.466ZM110.897 287.389C109.365 287.389 107.867 287.356 106.403 287.291L106.249 290.748C107.766 290.816 109.316 290.849 110.897 290.849V287.389ZM106.441 287.293C104.974 287.196 103.473 287.065 101.938 286.902L101.572 290.343C103.15 290.511 104.696 290.645 106.211 290.746L106.441 287.293ZM103.484 288.658L104.876 221.977L101.416 221.905L100.025 288.586L103.484 288.658ZM103.67 223.59C107.21 222.464 110.847 221.675 114.583 221.224L114.168 217.788C110.219 218.265 106.37 219.099 102.621 220.292L103.67 223.59ZM114.595 221.222C118.4 220.735 122.169 220.491 125.903 220.491V217.031C122.018 217.031 118.102 217.284 114.155 217.79L114.595 221.222ZM125.903 220.491C130.465 220.491 134.621 221.177 138.387 222.526L139.555 219.269C135.371 217.77 130.815 217.031 125.903 217.031V220.491ZM138.387 222.526C142.158 223.877 145.379 225.813 148.077 228.325L150.435 225.792C147.369 222.938 143.734 220.766 139.555 219.269L138.387 222.526ZM148.077 228.325C150.765 230.827 152.862 233.894 154.364 237.554L157.565 236.24C155.886 232.148 153.512 228.657 150.435 225.792L148.077 228.325ZM154.368 237.565C155.889 241.197 156.669 245.353 156.669 250.064H160.129C160.129 244.97 159.285 240.348 157.56 236.229L154.368 237.565ZM139.757 253.276C139.793 251.337 139.577 249.457 139.105 247.641L135.756 248.512C136.145 250.009 136.327 251.574 136.297 253.212L139.757 253.276ZM139.113 247.673C138.664 245.8 137.886 244.119 136.769 242.655L134.018 244.754C134.822 245.807 135.403 247.041 135.748 248.481L139.113 247.673ZM136.799 242.695C135.708 241.176 134.306 239.973 132.617 239.09L131.014 242.157C132.241 242.798 133.223 243.649 133.988 244.713L136.799 242.695ZM132.644 239.105C130.903 238.155 128.888 237.676 126.655 237.602L126.542 241.061C128.35 241.12 129.813 241.502 130.987 242.143L132.644 239.105ZM124.872 239.22L122.884 270.027L126.338 270.25L128.325 239.443L124.872 239.22ZM124.868 271.849C127.071 271.519 129.099 270.798 130.931 269.676L129.124 266.725C127.709 267.591 126.126 268.162 124.354 268.427L124.868 271.849ZM130.952 269.663C132.734 268.536 134.271 267.165 135.555 265.551L132.847 263.397C131.812 264.698 130.567 265.812 129.102 266.738L130.952 269.663ZM135.552 265.555C136.865 263.913 137.871 262.102 138.566 260.129L135.302 258.98C134.737 260.585 133.922 262.053 132.85 263.393L135.552 265.555ZM138.56 260.146C139.284 258.155 139.683 256.104 139.756 254L136.298 253.88C136.238 255.619 135.909 257.311 135.308 258.963L138.56 260.146ZM139.757 253.94V253.244H136.297V253.94H139.757ZM210.671 219.655L212.386 219.883L212.55 218.643L211.424 218.098L210.671 219.655ZM207.888 240.624L207.428 242.292L209.342 242.82L209.603 240.851L207.888 240.624ZM195.118 240.922L195.59 242.586L195.602 242.583L195.613 242.58L195.118 240.922ZM189.206 243.853L188.151 242.482L188.144 242.487L188.138 242.492L189.206 243.853ZM185.131 248.822L183.594 248.028L183.589 248.038L183.584 248.048L185.131 248.822ZM184.435 260.3L182.841 260.971L182.848 260.989L182.856 261.007L184.435 260.3ZM186.771 263.43L187.878 262.101L186.771 263.43ZM202.522 264.424L201.975 262.783L202.522 264.424ZM209.677 261.194L211.401 261.341L211.683 258.029L208.808 259.698L209.677 261.194ZM207.689 284.548L208.479 286.087L209.332 285.65L209.413 284.695L207.689 284.548ZM203.466 286.337L204.013 287.978L204.024 287.974L204.034 287.971L203.466 286.337ZM198.845 287.678L199.231 289.365L199.248 289.361L199.265 289.357L198.845 287.678ZM161.877 270.486L160.277 271.143L160.28 271.152L160.284 271.161L161.877 270.486ZM162.026 242.512L163.672 243.046L163.673 243.043L162.026 242.512ZM180.858 220.351L180.124 218.784L180.12 218.786L180.858 220.351ZM203.963 217.618L203.702 219.328L203.705 219.329L203.963 217.618ZM208.956 219.428L206.173 240.396L209.603 240.851L212.386 219.883L208.956 219.428ZM208.348 238.956C207.298 238.666 206.243 238.466 205.184 238.356L204.828 241.798C205.691 241.887 206.557 242.051 207.428 242.292L208.348 238.956ZM205.184 238.356C204.165 238.251 203.145 238.198 202.124 238.198V241.658C203.025 241.658 203.926 241.705 204.828 241.798L205.184 238.356ZM202.124 238.198C199.515 238.198 197.013 238.551 194.623 239.264L195.613 242.58C197.663 241.968 199.831 241.658 202.124 241.658V238.198ZM194.646 239.257C192.229 239.943 190.058 241.015 188.151 242.482L190.26 245.225C191.798 244.042 193.569 243.16 195.59 242.586L194.646 239.257ZM188.138 242.492C186.245 243.977 184.73 245.829 183.594 248.028L186.668 249.616C187.586 247.84 188.787 246.38 190.273 245.215L188.138 242.492ZM183.584 248.048C182.447 250.321 181.91 252.931 181.91 255.828H185.371C185.371 253.359 185.827 251.298 186.679 249.596L183.584 248.048ZM181.91 255.828C181.91 257.723 182.201 259.453 182.841 260.971L186.03 259.629C185.61 258.63 185.371 257.378 185.371 255.828H181.91ZM182.856 261.007C183.52 262.49 184.453 263.752 185.663 264.76L187.878 262.101C187.101 261.453 186.478 260.628 186.015 259.594L182.856 261.007ZM185.663 264.76C186.856 265.753 188.248 266.472 189.813 266.929L190.785 263.608C189.633 263.271 188.673 262.764 187.878 262.101L185.663 264.76ZM189.813 266.929C191.35 267.379 193.007 267.595 194.771 267.595V264.135C193.288 264.135 191.964 263.953 190.785 263.608L189.813 266.929ZM194.771 267.595C196.121 267.595 197.51 267.449 198.936 267.164L198.257 263.771C197.033 264.016 195.871 264.135 194.771 264.135V267.595ZM198.936 267.164C200.332 266.885 201.71 266.519 203.069 266.066L201.975 262.783C200.75 263.191 199.511 263.52 198.257 263.771L198.936 267.164ZM203.069 266.066C204.42 265.615 205.737 265.095 207.021 264.506L205.576 261.361C204.408 261.898 203.208 262.372 201.975 262.783L203.069 266.066ZM207.021 264.506C208.29 263.923 209.465 263.318 210.546 262.691L208.808 259.698C207.835 260.263 206.758 260.818 205.576 261.361L207.021 264.506ZM207.953 261.048L205.965 284.401L209.413 284.695L211.401 261.341L207.953 261.048ZM206.9 283.008C205.687 283.63 204.354 284.196 202.898 284.702L204.034 287.971C205.626 287.417 207.108 286.79 208.479 286.087L206.9 283.008ZM202.919 284.695C201.472 285.177 199.974 285.612 198.425 286L199.265 289.357C200.896 288.949 202.479 288.489 204.013 287.978L202.919 284.695ZM198.458 285.992C196.924 286.343 195.392 286.615 193.86 286.806L194.29 290.24C195.938 290.034 197.586 289.742 199.231 289.365L198.458 285.992ZM193.86 286.806C192.335 286.997 190.883 287.091 189.504 287.091V290.551C191.04 290.551 192.635 290.446 194.29 290.24L193.86 286.806ZM189.504 287.091C185.516 287.091 181.823 286.354 178.407 284.895L177.048 288.077C180.92 289.731 185.078 290.551 189.504 290.551V287.091ZM178.407 284.895C174.962 283.422 171.988 281.411 169.468 278.86L167.006 281.292C169.853 284.174 173.206 286.435 177.048 288.077L178.407 284.895ZM169.468 278.86C166.946 276.307 164.946 273.296 163.47 269.811L160.284 271.161C161.922 275.03 164.162 278.413 167.006 281.292L169.468 278.86ZM163.478 269.829C162.045 266.341 161.322 262.574 161.322 258.511H157.861C157.861 262.995 158.662 267.211 160.277 271.143L163.478 269.829ZM161.322 258.511C161.322 253.014 162.109 247.862 163.672 243.046L160.38 241.978C158.697 247.165 157.861 252.679 157.861 258.511H161.322ZM163.673 243.043C165.233 238.202 167.516 233.996 170.51 230.402L167.852 228.187C164.553 232.146 162.065 236.751 160.379 241.981L163.673 243.043ZM170.51 230.402C173.489 226.828 177.176 223.999 181.596 221.916L180.12 218.786C175.265 221.075 171.167 224.209 167.852 228.187L170.51 230.402ZM181.591 221.918C185.996 219.856 191.104 218.802 196.957 218.802V215.341C190.686 215.341 185.062 216.473 180.124 218.784L181.591 221.918ZM196.957 218.802C199.15 218.802 201.398 218.977 203.702 219.328L204.224 215.908C201.757 215.531 199.335 215.341 196.957 215.341V218.802ZM203.705 219.329C205.963 219.669 208.031 220.3 209.917 221.213L211.424 218.098C209.203 217.023 206.799 216.296 204.221 215.907L203.705 219.329Z" fill="#C0171D" mask="url(#path-29-inside-1_1647_767)"/>
</g>
<defs>
<clipPath id="clip0_1647_767">
<rect width="713" height="907" fill="white"/>
</clipPath>
</defs>
</svg>
